2.2Hz3min_grf.mot
version=1
nRows=10
nColumns 19
inDegrees=yes
endheader
time	1_ground_force_vx	1_ground_force_vy	1_ground_force_vz	1_ground_force_px	1_ground_force_py	1_ground_force_pz	1_ground_torque_x	1_ground_torque_y	1_ground_torque_z	2_ground_force_vx	2_ground_force_vy	2_ground_force_vz	2_ground_force_px	2_ground_force_py	2_ground_force_pz	2_ground_torque_x	2_ground_torque_y	2_ground_torque_z
            2.502500	           -0.137478	           -0.901158	           -0.049379	           -0.233013	            0.005581	           -0.255695	            0.021097	            0.046479	           -0.080878	            0.142441	           -0.551101	           -0.236671	           -0.232311	            0.006130	           -0.833667	           -0.019015	            0.056850	           -0.056340
            2.503000	           -0.000324	           -0.720276	           -0.186516	           -0.233013	            0.005581	           -0.255695	            0.064436	           -0.119836	           -0.075841	           -0.277920	           -0.920585	           -0.331662	           -0.232311	            0.006130	           -0.833667	           -0.056425	            0.027886	            0.075526
            2.503500	            0.366698	           -1.621730	           -0.145435	           -0.233013	            0.005581	           -0.255695	            0.081766	           -0.054798	           -0.097531	            0.049988	           -0.919066	           -0.425658	           -0.232311	            0.006130	           -0.833667	           -0.056425	            0.027886	            0.075526
            2.504000	            0.275516	           -1.262200	            0.085618	           -0.233013	            0.005581	           -0.255695	            0.090662	           -0.064315	           -0.045122	           -0.278441	           -0.737608	           -0.002509	           -0.232311	            0.006130	           -0.833667	            0.018537	            0.075488	            0.056812
            2.504500	            0.138230	           -0.722019	            0.225846	           -0.233013	            0.005581	           -0.255695	            0.028057	            0.009643	           -0.069331	            0.000521	           -0.182977	           -0.329154	           -0.232311	            0.006130	           -0.833667	           -0.206784	            0.037132	           -0.018627
            2.505000	            0.275028	           -1.081148	           -0.097032	           -0.233013	            0.005581	           -0.255695	            0.079566	            0.092814	           -0.044427	            0.143064	           -0.734914	           -0.331185	           -0.232311	            0.006130	           -0.833667	           -0.037665	            0.028155	            0.018967
            2.505500	            0.091557	           -0.540386	           -0.094258	           -0.233013	            0.005581	           -0.255695	            0.060431	            0.074240	           -0.052297	            0.003179	           -0.919570	           -0.331782	           -0.232311	            0.006130	           -0.833667	           -0.056212	           -0.028898	            0.094174
            2.506000	            0.046430	           -0.721840	            0.180218	           -0.233013	            0.005581	           -0.255695	            0.067735	            0.000041	            0.001812	           -0.093803	            0.000499	           -0.234601	           -0.232311	            0.006130	           -0.833667	           -0.037638	            0.009586	           -0.075351
            2.506500	           -0.000258	           -1.080808	           -0.188061	           -0.233013	            0.005581	           -0.255695	            0.083575	           -0.092344	           -0.019363	           -0.463408	           -1.473037	           -0.521266	           -0.232311	            0.006130	           -0.833667	           -0.075320	            0.047059	           -0.018650
            2.507000	           -0.000306	           -1.441142	           -0.235463	           -0.233013	            0.005581	           -0.255695	            0.104479	           -0.046044	           -0.038002	           -0.089753	           -1.104894	           -0.097759	           -0.232311	            0.006130	           -0.833667	            0.018709	            0.019040	           -0.018791
